<?xml version="1.0" standalone="no"?>
<!DOCTYPE svg PUBLIC "-//W3C//DTD SVG 20010904//EN"
 "http://www.w3.org/TR/2001/REC-SVG-20010904/DTD/svg10.dtd">
<svg version="1.0" xmlns="http://www.w3.org/2000/svg"
 width="512.000000pt" height="512.000000pt" viewBox="0 0 512.000000 512.000000"
 preserveAspectRatio="xMidYMid meet">

<g transform="translate(0.000000,512.000000) scale(0.100000,-0.100000)"
fill="#000000" stroke="none">
<path d="M2425 5054 c-529 -41 -972 -204 -1374 -507 -257 -194 -506 -482 -669
-774 -321 -573 -398 -1271 -211 -1912 199 -684 720 -1279 1369 -1567 367 -162
676 -222 1092 -211 401 11 707 87 1053 262 239 121 435 264 635 464 393 394
633 880 712 1441 17 125 17 516 -1 635 -88 594 -333 1077 -754 1481 -379 365
-869 601 -1387 668 -119 16 -378 27 -465 20z m375 -465 c695 -86 1285 -506
1589 -1132 119 -244 179 -464 202 -745 43 -510 -131 -1048 -471 -1454 -384
-461 -956 -728 -1560 -728 -682 0 -1317 341 -1701 915 -240 358 -366 842 -330
1267 23 281 83 503 201 745 304 621 894 1044 1580 1132 96 12 393 13 490 0z"/>
<path d="M1908 3791 c-109 -35 -189 -100 -252 -205 -68 -113 -67 -102 -64
-1051 l3 -850 23 -60 c48 -128 145 -227 270 -276 80 -32 214 -32 293 -1 31 12
143 80 250 150 107 70 385 253 619 406 236 155 449 302 478 330 66 63 117 165
133 262 22 138 -29 297 -127 396 -72 73 -1281 866 -1364 895 -81 28 -182 29
-262 4z m719 -832 c318 -209 582 -384 586 -388 5 -5 -56 -50 -135 -102 -79
-51 -341 -223 -582 -382 -242 -159 -445 -291 -453 -294 -11 -4 -13 131 -13
771 0 457 4 776 9 776 5 0 269 -171 588 -381z"/>
</g>
</svg>
