<?xml version="1.0" standalone="no"?>
<!DOCTYPE svg PUBLIC "-//W3C//DTD SVG 20010904//EN"
 "http://www.w3.org/TR/2001/REC-SVG-20010904/DTD/svg10.dtd">
<svg version="1.0" xmlns="http://www.w3.org/2000/svg"
 width="512.000000pt" height="439.000000pt" viewBox="0 0 512.000000 439.000000"
 preserveAspectRatio="xMidYMid meet">

<g transform="translate(0.000000,439.000000) scale(0.100000,-0.100000)"
fill="#000000" stroke="none">
<path d="M2707 4379 c-593 -63 -1131 -356 -1498 -816 -286 -358 -449 -788
-475 -1256 l-7 -117 -236 0 c-216 0 -239 -2 -268 -20 -37 -22 -60 -82 -49
-127 8 -31 700 -733 748 -759 34 -18 72 -18 106 0 15 8 187 176 383 373 245
246 358 367 363 387 10 39 -10 91 -45 121 l-31 25 -239 0 -239 0 0 78 c0 97
23 249 55 371 167 625 680 1103 1323 1232 151 30 399 37 552 15 267 -39 486
-123 711 -275 480 -322 769 -856 769 -1418 0 -725 -474 -1385 -1157 -1613
-212 -70 -299 -84 -543 -84 -189 -1 -229 2 -330 23 -239 50 -434 133 -643 275
-67 45 -137 88 -156 94 -109 38 -242 -22 -292 -132 -24 -54 -25 -148 0 -201
25 -56 68 -95 204 -186 410 -275 926 -406 1413 -358 824 80 1538 616 1837
1379 261 665 186 1394 -202 1988 -456 695 -1256 1085 -2054 1001z"/>
<path d="M2782 3149 c-26 -13 -55 -39 -70 -62 l-27 -41 -3 -490 c-2 -354 0
-503 9 -534 23 -85 61 -113 489 -367 220 -130 415 -241 435 -245 19 -4 54 -4
77 2 87 19 140 88 140 178 -1 56 -20 98 -60 131 -15 14 -186 119 -380 234
l-352 209 0 439 c0 470 0 465 -52 514 -31 29 -90 53 -130 53 -18 0 -52 -10
-76 -21z"/>
</g>
</svg>
