<?xml version="1.0" standalone="no"?>
<!DOCTYPE svg PUBLIC "-//W3C//DTD SVG 20010904//EN"
 "http://www.w3.org/TR/2001/REC-SVG-20010904/DTD/svg10.dtd">
<svg version="1.0" xmlns="http://www.w3.org/2000/svg"
 width="225.000000pt" height="225.000000pt" viewBox="0 0 225.000000 225.000000"
 preserveAspectRatio="xMidYMid meet">

<g transform="translate(0.000000,225.000000) scale(0.100000,-0.100000)"
fill="#000000" stroke="none">
<path d="M1095 2010 c-11 -4 -125 -113 -252 -242 -217 -217 -233 -236 -233
-270 0 -51 39 -88 93 -88 39 0 47 6 183 142 l143 141 3 -395 3 -396 24 -26
c37 -39 100 -37 135 5 l26 31 0 391 0 391 144 -142 c136 -135 146 -142 184
-142 55 0 92 37 92 93 0 39 -7 47 -222 263 -195 197 -264 256 -295 253 -4 0
-17 -4 -28 -9z"/>
<path d="M300 977 c-44 -22 -50 -49 -50 -240 0 -98 5 -197 11 -220 17 -68 69
-131 136 -163 l58 -29 670 0 c658 0 671 0 715 21 58 27 108 77 134 134 18 39
21 69 24 224 5 206 -3 248 -48 271 -35 18 -51 19 -85 3 -49 -22 -55 -51 -55
-246 0 -174 -1 -179 -23 -200 l-23 -22 -640 0 -641 0 -24 26 c-23 25 -24 30
-26 212 l-2 187 -31 28 c-33 29 -61 34 -100 14z"/>
</g>
</svg>
